<?xml version="1.0" standalone="no"?>
<!DOCTYPE svg PUBLIC "-//W3C//DTD SVG 20010904//EN"
 "http://www.w3.org/TR/2001/REC-SVG-20010904/DTD/svg10.dtd">
<svg version="1.0" xmlns="http://www.w3.org/2000/svg"
 width="1280.000000pt" height="988.000000pt" viewBox="0 0 1280.000000 988.000000"
 preserveAspectRatio="xMidYMid meet">
<metadata>
Created by potrace 1.15, written by Peter Selinger 2001-2017
</metadata>
<g transform="translate(0.000000,988.000000) scale(0.100000,-0.100000)"
fill="#555555" stroke="none">
<path d="M2985 8823 c-93 -9 -289 -44 -395 -72 -515 -133 -1004 -440 -1407
-883 -421 -462 -724 -974 -917 -1548 -100 -299 -172 -632 -212 -981 -35 -315
-30 -843 12 -1169 107 -840 458 -1579 1029 -2169 461 -475 963 -742 1575 -836
147 -22 479 -31 621 -16 794 85 1484 542 2137 1416 233 312 495 742 696 1143
l57 113 149 -226 c774 -1168 1513 -1925 2235 -2291 450 -228 797 -294 1285
-243 764 79 1461 511 2027 1256 520 684 807 1449 884 2358 15 178 15 651 0
820 -63 706 -265 1311 -613 1838 -478 723 -1094 1182 -1803 1341 -202 46 -341
60 -595 60 -264 1 -369 -11 -594 -68 -337 -86 -667 -254 -992 -506 -127 -99
-474 -441 -593 -585 -306 -371 -591 -815 -864 -1348 l-86 -167 -123 182
c-1053 1578 -2045 2433 -2980 2572 -98 15 -414 20 -533 9z m6796 -1314 c376
-38 697 -186 973 -449 512 -489 755 -1180 708 -2013 -24 -409 -89 -724 -217
-1043 -217 -540 -582 -959 -970 -1115 -162 -64 -253 -82 -435 -83 -162 -1
-167 0 -260 32 -445 155 -1001 662 -1730 1577 -183 230 -670 881 -670 896 0
31 231 420 405 684 245 371 423 594 680 851 251 251 433 388 676 508 281 139
536 186 840 155z m-6615 -444 c335 -59 642 -256 1003 -645 345 -372 883 -1048
1360 -1707 l102 -143 -52 -92 c-241 -431 -517 -843 -773 -1153 -131 -158 -436
-461 -561 -556 -273 -208 -502 -322 -766 -381 -90 -20 -130 -23 -294 -22 -135
0 -217 5 -282 17 -342 64 -619 207 -871 451 -359 347 -583 801 -668 1358 -22
140 -30 606 -14 781 58 643 275 1189 641 1612 324 374 759 552 1175 480z"/>
</g>
</svg>
